<?xml version="1.0" encoding="utf-8"?>
<!-- Generator: Adobe Illustrator 21.1.0, SVG Export Plug-In . SVG Version: 6.00 Build 0)  -->
<svg version="1.1" id="Layer_1" xmlns="http://www.w3.org/2000/svg" xmlns:xlink="http://www.w3.org/1999/xlink" x="0px" y="0px"
	 viewBox="0 0 128 128" style="enable-background:new 0 0 128 128;" xml:space="preserve">
<style type="text/css">
	.st0{fill:none;stroke:#000000;stroke-width:4;stroke-miterlimit:10;}
</style>
<g>
	<polygon class="st0" points="125.4,47.6 85.5,47.6 72.7,34.8 49.9,34.8 47,37.7 28.4,37.7 24.3,41.7 24.3,50.1 27.9,51.9 
		24.3,54.2 24.3,62.5 27.7,65 24.3,68 24.3,76.1 29.2,78.9 29.2,89.5 32.8,93.2 75.9,93.2 86.2,82.9 125.4,82.9 	"/>
	<polyline class="st0" points="61,46.3 61,63.2 58.1,66.1 50.4,66.1 47,62.8 47,37.7 	"/>
	<line class="st0" x1="27.9" y1="51.9" x2="47" y2="51.9"/>
	<line class="st0" x1="27.7" y1="65" x2="47" y2="65"/>
	<polyline class="st0" points="29.2,78.9 53,78.9 56.6,75.3 56.6,66.1 	"/>
	<polyline class="st0" points="56.6,93.2 56.6,81.9 53.3,78.6 	"/>
</g>
</svg>
